<svg width="58" height="55" viewBox="0 0 58 55" fill="none" xmlns="http://www.w3.org/2000/svg">
<circle cx="33" cy="25" r="25" fill="#E7E7E7"/>
<path d="M34.2651 2.16C34.3851 2.08 34.8851 2.04 35.7651 2.04C36.7251 2.04 37.2651 2.14 37.3851 2.34C37.4651 2.42 37.8451 8.92 38.5251 21.84C39.1651 34.72 39.5251 41.2 39.6051 41.28C39.7251 41.4 39.8451 41.46 39.9651 41.46C40.4051 41.58 41.4251 41.64 43.0251 41.64C43.7851 41.64 44.2051 41.68 44.2851 41.76C44.5251 41.84 44.6451 42.02 44.6451 42.3L44.0451 44.64C43.8851 44.88 43.4851 44.98 42.8451 44.94C42.6851 44.94 42.3451 44.94 41.8251 44.94C39.1051 44.78 35.4651 44.76 30.9051 44.88C30.5051 44.92 30.1651 44.94 29.8851 44.94C28.5651 44.98 27.8251 44.88 27.6651 44.64C27.5851 44.52 27.6251 44.06 27.7851 43.26C27.9851 42.42 28.1651 41.92 28.3251 41.76C28.4451 41.68 28.7651 41.64 29.2851 41.64C30.9251 41.64 32.0651 41.48 32.7051 41.16L33.0051 41.04V40.56L32.7651 36.84C32.6851 34.64 32.6251 33.5 32.5851 33.42V33.24H26.4651H20.2851L18.6051 36.3C17.4451 38.38 16.8251 39.6 16.7451 39.96C16.5451 40.64 17.0251 41.14 18.1851 41.46C18.5051 41.54 18.8651 41.6 19.2651 41.64C19.8251 41.64 20.1651 41.78 20.2851 42.06C20.3251 42.26 20.2451 42.72 20.0451 43.44C19.8851 44.2 19.7251 44.66 19.5651 44.82L19.3851 45H18.6051C15.0451 44.8 11.4451 44.78 7.80508 44.94C6.92508 44.98 6.42508 44.88 6.30508 44.64C6.22508 44.52 6.26508 44.06 6.42508 43.26C6.66508 42.34 6.88508 41.84 7.08508 41.76C7.20508 41.72 7.50508 41.68 7.98508 41.64C10.5451 41.52 12.3851 40.66 13.5051 39.06C13.7451 38.74 17.1651 32.58 23.7651 20.58L33.7851 2.46C33.9451 2.34 34.1051 2.24 34.2651 2.16ZM32.0451 21.66C31.7251 16.06 31.5651 13.24 31.5651 13.2V12.84L26.8251 21.36L22.1451 29.82L27.2451 29.88C30.6851 29.88 32.4051 29.86 32.4051 29.82L32.0451 21.66Z" fill="#2244DA"/>
</svg>
